# Blender 3.5.1
# www.blender.org
mtllib Arco.mtl
o bow_geo
v -3.656826 9.751118 -3.373467
v -3.770558 9.927439 -3.277975
v -4.019009 9.977872 -3.219718
v -4.256639 9.872871 -3.232826
v -4.344249 9.673948 -3.309618
v -4.230517 9.497625 -3.405110
v -3.982066 9.447191 -3.463367
v -3.744436 9.552193 -3.450259
v -3.098075 4.272234 -3.979658
v -3.232110 5.913640 -3.438885
v -3.403223 7.686337 -3.138631
v -3.481128 7.594426 -2.981607
v -3.304286 5.801445 -3.244699
v -3.169179 4.156242 -3.778516
v -3.714739 7.533753 -2.897864
v -3.535523 5.732368 -3.145563
v -3.399972 4.085594 -3.676498
v -3.967209 7.539858 -2.936458
v -3.790367 5.746877 -3.199550
v -3.655260 4.101675 -3.733367
v -4.090645 7.609167 -3.074782
v -3.919532 5.836470 -3.375035
v -3.785497 4.195065 -3.915808
v -4.012740 7.701077 -3.231806
v -3.847356 5.948667 -3.569223
v -3.714394 4.311059 -4.116953
v -3.779130 7.761750 -3.315548
v -3.616118 6.017742 -3.668359
v -3.483600 4.381706 -4.218968
v -3.526659 7.755645 -3.276955
v -3.361275 6.003233 -3.614372
v -3.228313 4.365626 -4.162101
v -3.025462 -0.652117 -9.149513
v -3.117337 -0.835937 -9.253975
v -3.356734 -0.934681 -9.278545
v -3.603418 -0.890504 -9.208826
v -3.712884 -0.729287 -9.085663
v -3.621008 -0.545468 -8.981197
v -3.381611 -0.446725 -8.956629
v -3.134928 -0.490901 -9.026347
v -3.007880 2.786058 -4.804808
v -2.961524 1.455111 -5.914333
v -2.952248 0.255455 -7.264378
v -3.030153 0.163545 -7.107354
v -3.033701 1.342916 -5.720147
v -3.078984 2.670065 -4.603665
v -3.263764 0.102872 -7.023612
v -3.264939 1.273840 -5.621011
v -3.309777 2.599416 -4.501648
v -3.516234 0.108977 -7.062205
v -3.519782 1.288349 -5.674998
v -3.565065 2.615498 -4.558517
v -3.639670 0.178285 -7.200528
v -3.648947 1.377941 -5.850483
v -3.695302 2.708888 -4.740958
v -3.561765 0.270196 -7.357553
v -3.576771 1.490138 -6.044671
v -3.624199 2.824882 -4.942102
v -3.328155 0.330869 -7.441295
v -3.345533 1.559214 -6.143806
v -3.393405 2.895530 -5.044118
v -3.075685 0.324763 -7.402701
v -3.090690 1.544705 -6.089819
v -3.138118 2.879449 -4.987251
v -3.047167 3.508572 -4.354541
v -3.117990 3.391583 -4.151574
v -3.348667 3.320522 -4.048800
v -3.604071 3.337016 -4.106425
v -3.734589 3.431402 -4.290691
v -3.663767 3.548391 -4.493658
v -3.433090 3.619452 -4.596431
v -3.177686 3.602958 -4.538807
v -3.896058 9.374636 -3.337453
v -3.296330 -0.507288 -8.824058
v -3.908827 9.350523 -3.295420
v -3.309100 -0.531400 -8.782024
v -3.952070 9.336273 -3.274482
v -3.352344 -0.545649 -8.761086
v -4.000457 9.340237 -3.286908
v -3.400731 -0.541687 -8.773513
v -4.025643 9.360088 -3.325417
v -3.425916 -0.521834 -8.812021
v -4.012874 9.384202 -3.367451
v -3.413147 -0.497722 -8.854055
v -3.969630 9.398451 -3.388388
v -3.369903 -0.483473 -8.874992
v -3.921243 9.394488 -3.375962
v -3.321516 -0.487435 -8.862566
v -3.596194 4.433674 -6.080755
v -3.608963 4.409561 -6.038722
v -3.652207 4.395312 -6.017785
v -3.700594 4.399274 -6.030211
v -3.725780 4.419127 -6.068720
v -3.713010 4.443240 -6.110753
v -3.669767 4.457489 -6.131691
v -3.621380 4.453526 -6.119265
vn 0.8115 0.1678 0.5598
vn 0.2760 0.1570 0.9482
vn -0.1265 0.1118 0.9856
vn -0.7128 -0.0033 0.7013
vn -0.8113 -0.1585 -0.5627
vn -0.2781 -0.1215 -0.9528
vn -0.1378 0.5405 -0.8300
vn 0.1199 -0.0768 -0.9898
vn 0.7101 0.0123 -0.7040
vn 0.8442 0.2809 -0.4565
vn 0.8401 0.2313 -0.4906
vn 0.8087 0.1786 -0.5605
vn 0.2229 0.4440 -0.8679
vn 0.2194 0.3263 -0.9195
vn 0.1838 0.2070 -0.9609
vn -0.4691 0.3663 -0.8036
vn -0.4492 0.2512 -0.8574
vn -0.3964 0.1418 -0.9070
vn -0.9539 0.0791 -0.2894
vn -0.9453 0.0308 -0.3248
vn -0.9163 -0.0151 -0.4003
vn -0.8443 -0.2800 0.4569
vn -0.8401 -0.2295 0.4915
vn -0.8077 -0.1681 0.5651
vn -0.2231 -0.4390 0.8703
vn -0.2195 -0.3165 0.9228
vn -0.1835 -0.1561 0.9706
vn 0.4687 -0.3614 0.8061
vn 0.4479 -0.2416 0.8608
vn 0.3867 -0.0921 0.9176
vn 0.9538 -0.0782 0.2899
vn 0.9450 -0.0291 0.3257
vn 0.9139 0.0252 0.4052
vn 0.2548 0.4812 -0.8388
vn 0.8512 -0.4867 0.1964
vn 0.3377 -0.8594 0.3839
vn -0.0649 -0.9046 0.4213
vn -0.6731 -0.6578 0.3379
vn -0.8503 0.4844 -0.2058
vn -0.3367 0.8445 -0.4165
vn 0.0613 0.8891 -0.4535
vn 0.6711 0.6551 -0.3471
vn 0.8420 0.3171 -0.4364
vn 0.8316 0.3717 -0.4127
vn 0.7919 0.4556 -0.4067
vn 0.2181 0.5223 -0.8244
vn 0.2011 0.6274 -0.7523
vn 0.1525 0.7218 -0.6751
vn -0.4739 0.4446 -0.7601
vn -0.4675 0.5524 -0.6902
vn -0.4277 0.6567 -0.6212
vn -0.9561 0.1153 -0.2693
vn -0.9538 0.1713 -0.2468
vn -0.9331 0.2619 -0.2465
vn -0.8420 -0.3180 0.4359
vn -0.8314 -0.3734 0.4116
vn -0.7897 -0.4648 0.4003
vn -0.2178 -0.5270 0.8215
vn -0.2002 -0.6354 0.7458
vn -0.1470 -0.7566 0.6372
vn 0.4740 -0.4494 0.7572
vn 0.4672 -0.5605 0.6838
vn 0.4231 -0.6926 0.5842
vn 0.9562 -0.1162 0.2688
vn 0.9538 -0.1730 0.2458
vn 0.9319 -0.2716 0.2404
vn 0.9655 -0.0791 0.2480
vn 0.5026 -0.3961 0.7684
vn -0.2548 -0.4812 0.8388
vn -0.8629 -0.2843 0.4178
vn -0.9655 0.0791 -0.2480
vn -0.5026 0.3961 -0.7684
vn 0.8629 0.2843 -0.4178
vn -0.1296 0.4063 -0.9045
vt 0.409216 0.665592
vt 0.400099 0.697333
vt 0.363795 0.918795
vt 0.329116 0.695481
vt 0.320164 0.664925
vt 0.315153 0.701007
vt 0.325070 0.934563
vt 0.403149 0.937053
vt 0.414213 0.700837
vt 0.420971 0.141474
vt 0.419264 0.252824
vt 0.415512 0.435877
vt 0.403102 0.391658
vt 0.401974 0.189372
vt 0.400555 0.082803
vt 0.365342 0.371239
vt 0.365803 0.164989
vt 0.366029 0.057475
vt 0.327496 0.392348
vt 0.329530 0.190214
vt 0.331398 0.083632
vt 0.314951 0.436624
vt 0.311970 0.254023
vt 0.310743 0.142781
vt 0.300410 0.490184
vt 0.296979 0.317836
vt 0.290702 0.208573
vt 0.461378 0.516577
vt 0.268850 0.518222
vt 0.468580 0.349640
vt 0.262347 0.351838
vt 0.475238 0.247511
vt 0.256096 0.250048
vt 0.429881 0.489274
vt 0.434015 0.316403
vt 0.440749 0.206831
vt 0.085228 0.655296
vt 0.093581 0.687590
vt 0.124572 0.911161
vt 0.164551 0.690291
vt 0.174224 0.660330
vt 0.178371 0.696702
vt 0.162885 0.929390
vt 0.084817 0.926901
vt 0.079396 0.690193
vt 0.085982 0.130816
vt 0.085033 0.242194
vt 0.084417 0.425353
vt 0.097874 0.381957
vt 0.103823 0.179889
vt 0.107783 0.073487
vt 0.136090 0.363958
vt 0.140549 0.157826
vt 0.142888 0.050375
vt 0.173403 0.387462
vt 0.176195 0.185342
vt 0.176870 0.078719
vt 0.184883 0.432511
vt 0.192219 0.250224
vt 0.196100 0.139140
vt 0.198137 0.486964
vt 0.205677 0.314949
vt 0.214556 0.206162
vt 0.036661 0.503074
vt 0.229007 0.516999
vt 0.033444 0.335800
vt 0.239475 0.351135
vt 0.029227 0.233322
vt 0.248150 0.249811
vt 0.068785 0.477796
vt 0.068777 0.304788
vt 0.064660 0.194867
vt 0.426085 0.118748
vt 0.081413 0.107781
vt 0.403723 0.058469
vt 0.105197 0.048969
vt 0.366080 0.032501
vt 0.143433 0.025416
vt 0.328331 0.059376
vt 0.180514 0.054675
vt 0.305723 0.120183
vt 0.201655 0.116878
vt 0.285793 0.185708
vt 0.220008 0.183625
vt 0.478969 0.225812
vt 0.252454 0.228467
vt 0.026016 0.211401
vt 0.252303 0.228478
vt 0.445757 0.183823
vt 0.060205 0.171557
vt 0.880066 0.910967
vt 0.880064 0.094170
vt 0.833048 0.910967
vt 0.833046 0.094170
vt 0.786030 0.910967
vt 0.786029 0.094171
vt 0.739013 0.910967
vt 0.739011 0.094171
vt 0.691995 0.910967
vt 0.691994 0.094171
vt 0.644977 0.910967
vt 0.644976 0.094171
vt 0.597959 0.910967
vt 0.597959 0.094171
vt 0.927084 0.910966
vt 0.927081 0.094170
vt 0.880065 0.502568
vt 0.833047 0.502568
vt 0.786029 0.502569
vt 0.739012 0.502569
vt 0.691994 0.502569
vt 0.644977 0.502569
vt 0.597959 0.502569
vt 0.927082 0.502568
s 1
usemtl lambert1.003
f 11/12/1 1/1/1 2/2/1 12/13/1
f 12/13/2 2/2/2 3/3/2 15/16/2
f 15/16/3 3/3/3 4/4/3 18/19/3
f 18/19/4 4/4/4 5/5/4 21/22/4
f 21/22/5 5/5/5 6/6/5 24/25/5
f 24/25/6 6/6/6 7/7/6 27/29/6
f 36/40/7 38/42/7 39/43/7 35/39/7
f 27/28/8 7/8/8 8/9/8 30/34/8
f 30/34/9 8/9/9 1/1/9 11/12/9
f 72/89/10 32/36/10 9/10/10 65/73/10
f 32/36/11 31/35/11 10/11/11 9/10/11
f 31/35/12 30/34/12 11/12/12 10/11/12
f 71/85/13 29/32/13 32/36/13 72/89/13
f 29/32/14 28/30/14 31/35/14 32/36/14
f 28/30/15 27/28/15 30/34/15 31/35/15
f 70/83/16 26/27/16 29/33/16 71/86/16
f 26/27/17 25/26/17 28/31/17 29/33/17
f 25/26/18 24/25/18 27/29/18 28/31/18
f 69/81/19 23/24/19 26/27/19 70/83/19
f 23/24/20 22/23/20 25/26/20 26/27/20
f 22/23/21 21/22/21 24/25/21 25/26/21
f 68/79/22 20/21/22 23/24/22 69/81/22
f 20/21/23 19/20/23 22/23/23 23/24/23
f 19/20/24 18/19/24 21/22/24 22/23/24
f 67/77/25 17/18/25 20/21/25 68/79/25
f 17/18/26 16/17/26 19/20/26 20/21/26
f 16/17/27 15/16/27 18/19/27 19/20/27
f 66/75/28 14/15/28 17/18/28 67/77/28
f 14/15/29 13/14/29 16/17/29 17/18/29
f 13/14/30 12/13/30 15/16/30 16/17/30
f 65/73/31 9/10/31 14/15/31 66/75/31
f 9/10/32 10/11/32 13/14/32 14/15/32
f 10/11/33 11/12/33 12/13/33 13/14/33
f 95/113/34 96/114/34 88/106/34 86/104/34
f 43/48/35 44/49/35 34/38/35 33/37/35
f 44/49/36 47/52/36 35/39/36 34/38/36
f 47/52/37 50/55/37 36/40/37 35/39/37
f 50/55/38 53/58/38 37/41/38 36/40/38
f 53/58/39 56/61/39 38/42/39 37/41/39
f 56/61/40 59/65/40 39/43/40 38/42/40
f 37/41/7 38/42/7 36/40/7
f 59/64/41 62/70/41 40/45/41 39/44/41
f 62/70/42 43/48/42 33/37/42 40/45/42
f 72/90/43 65/74/43 41/46/43 64/72/43
f 64/72/44 41/46/44 42/47/44 63/71/44
f 63/71/45 42/47/45 43/48/45 62/70/45
f 71/87/46 72/90/46 64/72/46 61/68/46
f 61/68/47 64/72/47 63/71/47 60/66/47
f 60/66/48 63/71/48 62/70/48 59/64/48
f 70/84/49 71/88/49 61/69/49 58/63/49
f 58/63/50 61/69/50 60/67/50 57/62/50
f 57/62/51 60/67/51 59/65/51 56/61/51
f 69/82/52 70/84/52 58/63/52 55/60/52
f 55/60/53 58/63/53 57/62/53 54/59/53
f 54/59/54 57/62/54 56/61/54 53/58/54
f 68/80/55 69/82/55 55/60/55 52/57/55
f 52/57/56 55/60/56 54/59/56 51/56/56
f 51/56/57 54/59/57 53/58/57 50/55/57
f 67/78/58 68/80/58 52/57/58 49/54/58
f 49/54/59 52/57/59 51/56/59 48/53/59
f 48/53/60 51/56/60 50/55/60 47/52/60
f 66/76/61 67/78/61 49/54/61 46/51/61
f 46/51/62 49/54/62 48/53/62 45/50/62
f 45/50/63 48/53/63 47/52/63 44/49/63
f 65/74/64 66/76/64 46/51/64 41/46/64
f 41/46/65 46/51/65 45/50/65 42/47/65
f 42/47/66 45/50/66 44/49/66 43/48/66
f 89/107/67 90/108/67 76/94/67 74/92/67
f 90/108/68 91/109/68 78/96/68 76/94/68
f 91/109/69 92/110/69 80/98/69 78/96/69
f 92/110/70 93/111/70 82/100/70 80/98/70
f 93/111/71 94/112/71 84/102/71 82/100/71
f 94/112/72 95/113/72 86/104/72 84/102/72
f 96/114/73 89/107/73 74/92/73 88/106/73
f 33/37/7 34/38/7 40/45/7
f 35/39/7 39/44/7 40/45/7 34/38/7
f 5/5/74 4/4/74 6/6/74
f 4/4/74 3/3/74 7/7/74 6/6/74
f 3/3/74 2/2/74 8/9/74 7/8/74
f 1/1/74 8/9/74 2/2/74
f 87/105/73 73/91/73 89/107/73 96/114/73
f 83/101/72 85/103/72 95/113/72 94/112/72
f 81/99/71 83/101/71 94/112/71 93/111/71
f 79/97/70 81/99/70 93/111/70 92/110/70
f 77/95/69 79/97/69 92/110/69 91/109/69
f 75/93/68 77/95/68 91/109/68 90/108/68
f 73/91/67 75/93/67 90/108/67 89/107/67
f 85/103/34 87/105/34 96/114/34 95/113/34
